<?xml version="1.0" encoding="UTF-8" standalone="no"?>
<svg width="40px" height="40px" viewBox="0 0 40 40" version="1.1" xmlns="http://www.w3.org/2000/svg" xmlns:xlink="http://www.w3.org/1999/xlink">
    <!-- Generator: Sketch 3.8.3 (29802) - http://www.bohemiancoding.com/sketch -->
    <title>down_icon</title>
    <desc>Created with Sketch.</desc>
    <defs></defs>
    <g id="Design" stroke="none" stroke-width="1" fill="none" fill-rule="evenodd">
        <g id="Home---Tablet" transform="translate(-364.000000, -720.000000)">
            <g id="Slider" transform="translate(0.000000, 80.000000)">
                <g id="down_icon" transform="translate(364.000000, 640.000000)">
                    <circle id="bg" fill="#FFFFFF" cx="20" cy="20" r="20"></circle>
                    <path d="M21.0179777,19.3221664 C21.0179777,19.3221664 20.490693,20 20.0310462,20 C19.5903089,20 19.0426601,19.3221664 19.0426601,19.3221664 L19.0332053,19.3119844 L14.2607332,13.9314984 C13.9130889,13.4907612 13.9130889,12.7700175 14.2607332,12.3300075 C14.6091048,11.8899975 15.1792995,11.8899975 15.5269438,12.3300075 L20.0303189,16.8348372 L24.5329667,12.3300075 C24.8820655,11.8899975 25.4508057,11.8899975 25.7999045,12.3300075 C26.1475488,12.7700175 26.1475488,13.4907612 25.7999045,13.9314984 L21.0274324,19.3119844 L21.0179777,19.3221664 L21.0179777,19.3221664 Z M21.0179777,28.3221664 C21.0179777,28.3221664 20.490693,29 20.0310462,29 C19.5903089,29 19.0426601,28.3221664 19.0426601,28.3221664 L19.0332053,28.3119844 L14.2607332,22.9314984 C13.9130889,22.4907612 13.9130889,21.7700175 14.2607332,21.3300075 C14.6091048,20.8899975 15.1792995,20.8899975 15.5269438,21.3300075 L20.0303189,25.8348372 L24.5329667,21.3300075 C24.8820655,20.8899975 25.4508057,20.8899975 25.7999045,21.3300075 C26.1475488,21.7700175 26.1475488,22.4907612 25.7999045,22.9314984 L21.0274324,28.3119844 L21.0179777,28.3221664 L21.0179777,28.3221664 Z" id="arrow_down" fill="#000000"></path>
                </g>
            </g>
        </g>
    </g>
</svg>