<?xml version="1.0" encoding="UTF-8" standalone="no"?>
<svg width="54px" height="72px" viewBox="0 0 54 72" version="1.1" xmlns="http://www.w3.org/2000/svg" xmlns:xlink="http://www.w3.org/1999/xlink">
    <!-- Generator: Sketch 3.8.3 (29802) - http://www.bohemiancoding.com/sketch -->
    <title>down_icon</title>
    <desc>Created with Sketch.</desc>
    <defs></defs>
    <g id="Design" stroke="none" stroke-width="1" fill="none" fill-rule="evenodd">
        <g id="Home---Desktop" transform="translate(-485.000000, -687.000000)">
            <g id="Slider" transform="translate(0.000000, 80.000000)">
                <g id="down_icon" transform="translate(485.000000, 607.000000)">
                    <path d="M26.0123412,71.3524853 C26.0123412,71.3524853 26.5396259,72.0303189 26.9992727,72.0303189 C27.44001,72.0303189 27.9876588,71.3524853 27.9876588,71.3524853 L27.9971136,71.3423032 L32.7695857,65.9618173 C33.1172299,65.52108 33.1172299,64.8003364 32.7695857,64.3603264 C32.4212141,63.9203164 31.8510193,63.9203164 31.5033751,64.3603264 L27,68.865156 L22.4973522,64.3603264 C22.1482534,63.9203164 21.5795132,63.9203164 21.2304143,64.3603264 C20.8827701,64.8003364 20.8827701,65.52108 21.2304143,65.9618173 L26.0028864,71.3423032 L26.0123412,71.3524853" id="arrow_down" fill="#FFFFFF"></path>
                    <circle id="bg" fill="#FFFFFF" cx="27" cy="27" r="27"></circle>
                    <path d="M16,20.4965203 C16,14.7022163 20.9319743,10 27,10 C33.0763985,10 38,14.6961584 38,20.4965203 L38,33.5034797 C38,39.2977837 33.0680257,44 27,44 C20.9236015,44 16,39.3038416 16,33.5034797 L16,20.4965203 Z M18,20.4965203 L18,33.5034797 C18,38.2004793 22.0294373,42 27,42 C31.9604487,42 36,38.1959783 36,33.5034797 L36,20.4965203 C36,15.7995207 31.9705627,12 27,12 C22.0395513,12 18,15.8040217 18,20.4965203 Z M25,20.9981014 C25,19.8945804 25.8877296,19 27,19 C28.1045695,19 29,19.8867064 29,20.9981014 L29,25.0018986 C29,26.1054196 28.1122704,27 27,27 C25.8954305,27 25,26.1132936 25,25.0018986 L25,20.9981014 Z" id="mouse" fill="#FD5454"></path>
                </g>
            </g>
        </g>
    </g>
</svg>