<svg width="11" height="20" viewBox="0 0 11 20" xmlns="http://www.w3.org/2000/svg">
  <title>
    facebook
  </title>
  <path d="M10.406.004L7.812 0C4.9 0 3.016 1.932 3.016 4.922v2.27H.408c-.226 0-.408.182-.408.407v3.288c0 .225.183.407.408.407h2.608v8.297c0 .226.182.408.407.408h3.403c.225 0 .407-.183.407-.408v-8.297h3.05c.225 0 .407-.182.407-.407l.002-3.29c0-.107-.044-.21-.12-.287-.076-.076-.18-.12-.29-.12h-3.05V5.27c0-.925.222-1.394 1.426-1.394h1.747c.226 0 .408-.184.408-.41V.413c0-.225-.182-.407-.407-.408z" fill="#FFF" fill-rule="evenodd"/>
</svg>
