<svg width="20" height="20" viewBox="0 0 20 20" xmlns="http://www.w3.org/2000/svg">
  <title>
    instagram
  </title>
  <path d="M2.567 0h14.866C18.845 0 20 1.045 20 2.567v14.866C20 18.955 18.845 20 17.433 20H2.567C1.155 20 0 18.955 0 17.433V2.567C0 1.045 1.155 0 2.567 0zM14.57 2.222c-.496 0-.9.412-.9.916V5.33c0 .505.404.917.9.917h2.26c.495 0 .9-.412.9-.916V3.14c0-.504-.405-.916-.9-.916h-2.26zm3.17 6.236h-1.76c.166.544.256 1.12.256 1.716 0 3.326-2.784 6.023-6.217 6.023-3.434 0-6.217-2.697-6.217-6.023 0-.597.09-1.173.256-1.716H2.22v8.448c0 .437.358.795.796.795h13.927c.437 0 .795-.356.795-.794V8.458zm-7.72-2.393C7.8 6.065 6 7.807 6 9.957s1.8 3.892 4.017 3.892c2.217 0 4.016-1.744 4.016-3.893 0-2.15-1.8-3.892-4.017-3.892z" fill="#FFF" fill-rule="evenodd"/>
</svg>
