<svg width="25" height="20" viewBox="0 0 25 20" xmlns="http://www.w3.org/2000/svg">
  <title>
    twitter
  </title>
  <path d="M24.66 2.366c-.91.402-1.882.674-2.906.796C22.8 2.537 23.6 1.546 23.978.37c-.98.578-2.062.998-3.214 1.226C19.84.612 18.528 0 17.072 0c-2.794 0-5.06 2.262-5.06 5.05 0 .395.045.78.132 1.15C7.94 5.99 4.214 3.98 1.718.923c-.436.745-.684 1.613-.684 2.54 0 1.75.894 3.298 2.25 4.202-.83-.028-1.61-.255-2.292-.634v.064c0 2.447 1.745 4.488 4.057 4.953-.424.114-.87.177-1.333.177-.327 0-.643-.032-.953-.094.644 2.008 2.512 3.468 4.725 3.508-1.732 1.354-3.914 2.16-6.283 2.16-.41 0-.81-.026-1.207-.07C2.24 19.163 4.897 20 7.754 20c9.305 0 14.392-7.696 14.392-14.37l-.017-.654c.993-.708 1.852-1.597 2.53-2.61z" fill="#FFF" fill-rule="evenodd"/>
</svg>
